# xmcd
#
# Track frame offsets:
# 150
# 12599
# 24206
# 39042
# 53490
# 61643
# 76851
# 89046
# 103739
# 116200
# 126220
#
# Disc length: 1851 seconds
#
#
# Revision: 0
# Processed by: cddbd v1.5.2PL0 Copyright (c) Steve Scherf et al.
# Submitted via: FreeRIP 2.945 
#
DISCID=7f07390b
DTITLE=Bill Anderson - My Life But You Know I Love You
DYEAR=1900
DGENRE=Country
TTITLE0=My Life
TTITLE1=To Be Alone
TTITLE2=Games People Play
TTITLE3=Us
TTITLE4=Apologize
TTITLE5=Hungry Eyes
TTITLE6=But You Know I Love You
TTITLE7=Picture From Life's Other Side
TTITLE8=Why You Been Gone So Long
TTITLE9=Yours Love
TTITLE10=I Am
EXTD=
EXTT0=
EXTT1=
EXTT2=
EXTT3=
EXTT4=
EXTT5=
EXTT6=
EXTT7=
EXTT8=
EXTT9=
EXTT10=
PLAYORDER=
